<?xml version="1.0" encoding="utf-8"?><svg xmlns="http://www.w3.org/2000/svg" xmlns:xlink="http://www.w3.org/1999/xlink"><symbol viewBox="4 4 16 16" id="arrow"><path fill="none" d="M0 0h24v24H0V0z"/><path d="M20 12l-1.41-1.41L13 16.17V4h-2v12.17l-5.58-5.59L4 12l8 8 8-8z"/></symbol><symbol viewBox="4 2.5 16 19.5" id="bell"><path d="M12 22c1.1 0 2-.9 2-2h-4a2 2 0 0 0 2 2zm6-6v-5c0-3.07-1.641-5.64-4.5-6.32V4c0-.83-.67-1.5-1.5-1.5s-1.5.67-1.5 1.5v.68C7.63 5.36 6 7.92 6 11v5l-2 2v1h16v-1l-2-2z"/></symbol><symbol viewBox="4 5 16 14" id="blog"><path d="M14 17H4v2h10v-2zm6-8H4v2h16V9zM4 15h16v-2H4v2zM4 5v2h16V5H4z"/><path fill="none" d="M0 0h24v24H0V0z"/></symbol><symbol viewBox="3 3 30 27" id="camera"><circle cx="18" cy="18" r="4.8"/><path d="M13.5 3l-2.745 3H6C4.35 6 3 7.35 3 9v18c0 1.65 1.35 3 3 3h24c1.65 0 3-1.35 3-3V9c0-1.65-1.35-3-3-3h-4.755L22.5 3h-9zM18 25.5c-4.14 0-7.5-3.359-7.5-7.5 0-4.14 3.36-7.5 7.5-7.5 4.141 0 7.5 3.36 7.5 7.5 0 4.141-3.359 7.5-7.5 7.5z"/><path fill="none" d="M0 0h36v36H0V0z"/></symbol><symbol viewBox="6 7.84 12 7.41" id="chevron"><path d="M7.41 7.84L12 12.42l4.59-4.58L18 9.25l-6 6-6-6 1.41-1.41z"/><path fill="none" d="M0-.75h24v24H0v-24z"/></symbol><symbol viewBox="2 2 20 20" id="clock"><path d="M11.99 2C6.47 2 2 6.48 2 12s4.47 10 9.99 10C17.519 22 22 17.52 22 12S17.519 2 11.99 2zM12 20c-4.42 0-8-3.58-8-8s3.58-8 8-8 8 3.58 8 8-3.58 8-8 8z"/><path fill="none" d="M0 0h24v24H0V0z"/><path d="M12.5 7H11v6l5.25 3.15.75-1.23-4.5-2.67V7z"/></symbol></svg>