<?xml version="1.0" encoding="utf-8"?>
<!-- Generator: Adobe Illustrator 19.2.1, SVG Export Plug-In . SVG Version: 6.00 Build 0)  -->
<svg version="1.1" id="Слой_1" xmlns="http://www.w3.org/2000/svg" xmlns:xlink="http://www.w3.org/1999/xlink" x="0px" y="0px"
	 viewBox="3 3 30 27" enable-background="new 3 3 30 27" xml:space="preserve">
<circle cx="18" cy="18" r="4.8"/>
<path d="M13.5,3l-2.745,3H6C4.35,6,3,7.35,3,9v18c0,1.65,1.35,3,3,3h24c1.65,0,3-1.35,3-3V9c0-1.65-1.35-3-3-3h-4.755L22.5,3H13.5z
	 M18,25.5c-4.14,0-7.5-3.359-7.5-7.5c0-4.14,3.36-7.5,7.5-7.5c4.141,0,7.5,3.36,7.5,7.5C25.5,22.141,22.141,25.5,18,25.5z"/>
<path fill="none" d="M0,0h36v36H0V0z"/>
</svg>
