<?xml version="1.0" encoding="utf-8"?>
<!-- Generator: Adobe Illustrator 19.2.1, SVG Export Plug-In . SVG Version: 6.00 Build 0)  -->
<svg version="1.1" id="Слой_1" xmlns="http://www.w3.org/2000/svg" xmlns:xlink="http://www.w3.org/1999/xlink" x="0px" y="0px"
	 viewBox="2 2 20 20" enable-background="new 2 2 20 20" xml:space="preserve">
<path d="M11.99,2C6.47,2,2,6.48,2,12c0,5.52,4.47,10,9.99,10C17.519,22,22,17.52,22,12C22,6.48,17.519,2,11.99,2z M12,20
	c-4.42,0-8-3.58-8-8c0-4.42,3.58-8,8-8c4.42,0,8,3.58,8,8C20,16.42,16.42,20,12,20z"/>
<path fill="none" d="M0,0h24v24H0V0z"/>
<path d="M12.5,7H11v6l5.25,3.15L17,14.92l-4.5-2.67V7z"/>
</svg>
